<svg xmlns="http://www.w3.org/2000/svg" version="1.1" xmlns:xlink="http://www.w3.org/1999/xlink" xmlns:svgjs="http://svgjs.dev/svgjs" width="1500" height="1500" viewBox="0 0 1500 1500"><rect width="1500" height="1500" fill="#d84c23"></rect><g transform="matrix(0.6666666666666666,0,0,0.6666666666666666,249.39393939393938,438.5856950067477)"><svg viewBox="0 0 396 247" data-background-color="#d84c23" preserveAspectRatio="xMidYMid meet" height="935" width="1500" xmlns="http://www.w3.org/2000/svg" xmlns:xlink="http://www.w3.org/1999/xlink"><g id="tight-bounds" transform="matrix(1,0,0,1,0.2400000000000091,-0.09999999999999432)"><svg viewBox="0 0 395.52 247.2" height="247.2" width="395.52"><g><svg></svg></g><g><svg viewBox="0 0 395.52 247.2" height="247.2" width="395.52"><g transform="matrix(1,0,0,1,94.31315657142855,47.215199999999996)"><svg viewBox="0 0 206.89368685714288 152.7696" height="152.7696" width="206.89368685714288"><g><svg viewBox="0 0 206.89368685714288 152.7696" height="152.7696" width="206.89368685714288"><g><svg viewBox="0 0 206.89368685714288 152.7696" height="152.7696" width="206.89368685714288"><g><svg viewBox="0 0 206.89368685714288 152.7696" height="152.7696" width="206.89368685714288"><g id="textblocktransform"><svg viewBox="0 0 206.89368685714288 152.7696" height="152.7696" width="206.89368685714288" id="textblock"><g><svg viewBox="0 0 206.89368685714288 152.7696" height="152.7696" width="206.89368685714288"><g transform="matrix(1,0,0,1,0,0)"><svg width="206.89368685714288" viewBox="0.6 -35 47.4 35" height="152.7696" data-palette-color="#e9af20"><path d="M5.9 0L0.6-35 6.15-35 9.75-7.85 9.85-7.85 13.45-35 18.5-35 13.2 0 5.9 0ZM21.15 0L21.15-35 26.65-35 26.65 0 21.15 0ZM30.75 0L30.75-35 37.65-35 43-14.05 43.09-14.05 43.09-35 48-35 48 0 42.34 0 35.75-25.55 35.65-25.55 35.65 0 30.75 0Z" opacity="1" transform="matrix(1,0,0,1,0,0)" fill="#e9af20" class="wordmark-text-0" data-fill-palette-color="primary" id="text-0"></path></svg></g></svg></g></svg></g></svg></g></svg></g></svg></g></svg></g><path d="M118.906 41.215L118.906 0 366.106 0 366.106 247.2 118.906 247.2 118.906 205.985 132.682 205.985 132.682 233.423 352.329 233.423 352.329 13.777 132.682 13.777 132.682 41.215Z" fill="#e9af20" stroke="transparent" data-fill-palette-color="tertiary"></path></svg></g><defs></defs></svg><rect width="395.52" height="247.2" fill="none" stroke="none" visibility="hidden"></rect></g></svg></g></svg>